<mxfile host="Electron" modified="2023-06-07T23:59:03.991Z" agent="Mozilla/5.0 (Windows NT 10.0; Win64; x64) AppleWebKit/537.36 (KHTML, like Gecko) draw.io/21.2.1 Chrome/112.0.5615.87 Electron/24.1.2 Safari/537.36" etag="nhkaxWhP_vKO5AoMdc9D" version="21.2.1" type="device">
  <diagram name="Página-1" id="8Ug8fFl8fjnGmv9rclt-">
    <mxGraphModel dx="1907" dy="645" grid="1" gridSize="10" guides="1" tooltips="1" connect="1" arrows="1" fold="1" page="1" pageScale="1" pageWidth="827" pageHeight="1169" math="0" shadow="0">
      <root>
        <mxCell id="0" />
        <mxCell id="1" parent="0" />
        <mxCell id="BpLa_ssaulW1l6H_9I5X-1" value="Cliente" style="whiteSpace=wrap;html=1;align=center;" parent="1" vertex="1">
          <mxGeometry x="-50" y="340" width="100" height="40" as="geometry" />
        </mxCell>
        <mxCell id="BpLa_ssaulW1l6H_9I5X-2" value="nombre" style="ellipse;whiteSpace=wrap;html=1;align=center;" parent="1" vertex="1">
          <mxGeometry x="-130" y="430" width="100" height="40" as="geometry" />
        </mxCell>
        <mxCell id="BpLa_ssaulW1l6H_9I5X-4" value="apellido" style="ellipse;whiteSpace=wrap;html=1;align=center;" parent="1" vertex="1">
          <mxGeometry x="-130" y="240" width="100" height="40" as="geometry" />
        </mxCell>
        <mxCell id="BpLa_ssaulW1l6H_9I5X-5" value="metodo_pago" style="ellipse;whiteSpace=wrap;html=1;align=center;" parent="1" vertex="1">
          <mxGeometry x="20" y="240" width="100" height="40" as="geometry" />
        </mxCell>
        <mxCell id="BpLa_ssaulW1l6H_9I5X-7" value="" style="endArrow=none;html=1;rounded=0;exitX=0.75;exitY=1;exitDx=0;exitDy=0;entryX=0.5;entryY=0;entryDx=0;entryDy=0;" parent="1" source="BpLa_ssaulW1l6H_9I5X-1" target="BpLa_ssaulW1l6H_9I5X-21" edge="1">
          <mxGeometry relative="1" as="geometry">
            <mxPoint x="50" y="359.5" as="sourcePoint" />
            <mxPoint x="70" y="440" as="targetPoint" />
          </mxGeometry>
        </mxCell>
        <mxCell id="BpLa_ssaulW1l6H_9I5X-8" value="" style="endArrow=none;html=1;rounded=0;entryX=0.5;entryY=0;entryDx=0;entryDy=0;exitX=0.25;exitY=1;exitDx=0;exitDy=0;" parent="1" source="BpLa_ssaulW1l6H_9I5X-1" target="BpLa_ssaulW1l6H_9I5X-2" edge="1">
          <mxGeometry relative="1" as="geometry">
            <mxPoint x="35" y="390" as="sourcePoint" />
            <mxPoint x="60" y="480" as="targetPoint" />
          </mxGeometry>
        </mxCell>
        <mxCell id="BpLa_ssaulW1l6H_9I5X-9" value="" style="endArrow=none;html=1;rounded=0;entryX=0.5;entryY=1;entryDx=0;entryDy=0;exitX=0.25;exitY=0;exitDx=0;exitDy=0;" parent="1" source="BpLa_ssaulW1l6H_9I5X-1" target="BpLa_ssaulW1l6H_9I5X-4" edge="1">
          <mxGeometry relative="1" as="geometry">
            <mxPoint x="-15" y="390" as="sourcePoint" />
            <mxPoint x="-70" y="450" as="targetPoint" />
          </mxGeometry>
        </mxCell>
        <mxCell id="BpLa_ssaulW1l6H_9I5X-10" value="" style="endArrow=none;html=1;rounded=0;entryX=0.43;entryY=1.025;entryDx=0;entryDy=0;exitX=0.75;exitY=0;exitDx=0;exitDy=0;entryPerimeter=0;" parent="1" source="BpLa_ssaulW1l6H_9I5X-1" target="BpLa_ssaulW1l6H_9I5X-5" edge="1">
          <mxGeometry relative="1" as="geometry">
            <mxPoint x="45" y="340" as="sourcePoint" />
            <mxPoint y="280" as="targetPoint" />
          </mxGeometry>
        </mxCell>
        <mxCell id="BpLa_ssaulW1l6H_9I5X-14" value="Comprar" style="shape=rhombus;perimeter=rhombusPerimeter;whiteSpace=wrap;html=1;align=center;" parent="1" vertex="1">
          <mxGeometry x="190" y="330" width="120" height="60" as="geometry" />
        </mxCell>
        <mxCell id="BpLa_ssaulW1l6H_9I5X-16" value="Producto" style="whiteSpace=wrap;html=1;align=center;" parent="1" vertex="1">
          <mxGeometry x="450" y="340" width="100" height="40" as="geometry" />
        </mxCell>
        <mxCell id="BpLa_ssaulW1l6H_9I5X-17" value="" style="endArrow=none;html=1;rounded=0;exitX=1;exitY=0.5;exitDx=0;exitDy=0;entryX=0;entryY=0.5;entryDx=0;entryDy=0;" parent="1" source="BpLa_ssaulW1l6H_9I5X-1" target="BpLa_ssaulW1l6H_9I5X-14" edge="1">
          <mxGeometry relative="1" as="geometry">
            <mxPoint x="110" y="430" as="sourcePoint" />
            <mxPoint x="270" y="430" as="targetPoint" />
          </mxGeometry>
        </mxCell>
        <mxCell id="BpLa_ssaulW1l6H_9I5X-18" value="" style="endArrow=none;html=1;rounded=0;exitX=1;exitY=0.5;exitDx=0;exitDy=0;entryX=0;entryY=0.5;entryDx=0;entryDy=0;" parent="1" source="BpLa_ssaulW1l6H_9I5X-14" target="BpLa_ssaulW1l6H_9I5X-16" edge="1">
          <mxGeometry relative="1" as="geometry">
            <mxPoint x="370" y="380" as="sourcePoint" />
            <mxPoint x="510" y="380" as="targetPoint" />
          </mxGeometry>
        </mxCell>
        <mxCell id="BpLa_ssaulW1l6H_9I5X-19" value="M:M" style="text;html=1;align=center;verticalAlign=middle;resizable=0;points=[];autosize=1;strokeColor=none;fillColor=none;" parent="1" vertex="1">
          <mxGeometry x="225" y="300" width="50" height="30" as="geometry" />
        </mxCell>
        <mxCell id="BpLa_ssaulW1l6H_9I5X-21" value="Id_cli" style="ellipse;whiteSpace=wrap;html=1;align=center;fontStyle=4;" parent="1" vertex="1">
          <mxGeometry x="10" y="440" width="100" height="40" as="geometry" />
        </mxCell>
        <mxCell id="BpLa_ssaulW1l6H_9I5X-22" value="Id_produ" style="ellipse;whiteSpace=wrap;html=1;align=center;fontStyle=4;" parent="1" vertex="1">
          <mxGeometry x="390" y="430" width="100" height="40" as="geometry" />
        </mxCell>
        <mxCell id="BpLa_ssaulW1l6H_9I5X-23" value="Descripcion" style="ellipse;whiteSpace=wrap;html=1;align=center;" parent="1" vertex="1">
          <mxGeometry x="450" y="240" width="100" height="40" as="geometry" />
        </mxCell>
        <mxCell id="BpLa_ssaulW1l6H_9I5X-24" value="Precio" style="ellipse;whiteSpace=wrap;html=1;align=center;" parent="1" vertex="1">
          <mxGeometry x="570" y="250" width="100" height="40" as="geometry" />
        </mxCell>
        <mxCell id="BpLa_ssaulW1l6H_9I5X-25" value="" style="endArrow=none;html=1;rounded=0;exitX=0.25;exitY=1;exitDx=0;exitDy=0;entryX=0.5;entryY=0;entryDx=0;entryDy=0;" parent="1" source="BpLa_ssaulW1l6H_9I5X-16" target="BpLa_ssaulW1l6H_9I5X-22" edge="1">
          <mxGeometry relative="1" as="geometry">
            <mxPoint x="670" y="410" as="sourcePoint" />
            <mxPoint x="705" y="470" as="targetPoint" />
          </mxGeometry>
        </mxCell>
        <mxCell id="BpLa_ssaulW1l6H_9I5X-26" value="" style="endArrow=none;html=1;rounded=0;exitX=0.5;exitY=1;exitDx=0;exitDy=0;entryX=0.5;entryY=0;entryDx=0;entryDy=0;" parent="1" source="BpLa_ssaulW1l6H_9I5X-23" target="BpLa_ssaulW1l6H_9I5X-16" edge="1">
          <mxGeometry relative="1" as="geometry">
            <mxPoint x="530" y="260" as="sourcePoint" />
            <mxPoint x="470" y="310" as="targetPoint" />
          </mxGeometry>
        </mxCell>
        <mxCell id="BpLa_ssaulW1l6H_9I5X-28" value="" style="endArrow=none;html=1;rounded=0;exitX=0.5;exitY=1;exitDx=0;exitDy=0;entryX=0.75;entryY=0;entryDx=0;entryDy=0;" parent="1" source="BpLa_ssaulW1l6H_9I5X-24" target="BpLa_ssaulW1l6H_9I5X-16" edge="1">
          <mxGeometry relative="1" as="geometry">
            <mxPoint x="505" y="250" as="sourcePoint" />
            <mxPoint x="540" y="310" as="targetPoint" />
          </mxGeometry>
        </mxCell>
        <mxCell id="BpLa_ssaulW1l6H_9I5X-29" value="Adminisrrar" style="shape=rhombus;perimeter=rhombusPerimeter;whiteSpace=wrap;html=1;align=center;" parent="1" vertex="1">
          <mxGeometry x="440" y="540" width="120" height="60" as="geometry" />
        </mxCell>
        <mxCell id="BpLa_ssaulW1l6H_9I5X-30" value="" style="endArrow=none;html=1;rounded=0;exitX=0.5;exitY=0;exitDx=0;exitDy=0;entryX=0.5;entryY=1;entryDx=0;entryDy=0;" parent="1" source="BpLa_ssaulW1l6H_9I5X-29" target="BpLa_ssaulW1l6H_9I5X-16" edge="1">
          <mxGeometry relative="1" as="geometry">
            <mxPoint x="510" y="420" as="sourcePoint" />
            <mxPoint x="670" y="420" as="targetPoint" />
          </mxGeometry>
        </mxCell>
        <mxCell id="BpLa_ssaulW1l6H_9I5X-31" value="" style="endArrow=none;html=1;rounded=0;" parent="1" source="BpLa_ssaulW1l6H_9I5X-32" target="BpLa_ssaulW1l6H_9I5X-29" edge="1">
          <mxGeometry relative="1" as="geometry">
            <mxPoint x="499.5" y="760" as="sourcePoint" />
            <mxPoint x="499.5" y="600" as="targetPoint" />
          </mxGeometry>
        </mxCell>
        <mxCell id="BpLa_ssaulW1l6H_9I5X-32" value="Empleado" style="whiteSpace=wrap;html=1;align=center;" parent="1" vertex="1">
          <mxGeometry x="450" y="760" width="100" height="40" as="geometry" />
        </mxCell>
        <mxCell id="BpLa_ssaulW1l6H_9I5X-33" value="Dueño" style="whiteSpace=wrap;html=1;align=center;" parent="1" vertex="1">
          <mxGeometry x="-50" y="760" width="100" height="40" as="geometry" />
        </mxCell>
        <mxCell id="BpLa_ssaulW1l6H_9I5X-34" value="Gestionar" style="shape=rhombus;perimeter=rhombusPerimeter;whiteSpace=wrap;html=1;align=center;" parent="1" vertex="1">
          <mxGeometry x="190" y="750" width="120" height="60" as="geometry" />
        </mxCell>
        <mxCell id="BpLa_ssaulW1l6H_9I5X-35" value="" style="endArrow=none;html=1;rounded=0;" parent="1" source="BpLa_ssaulW1l6H_9I5X-33" target="BpLa_ssaulW1l6H_9I5X-34" edge="1">
          <mxGeometry relative="1" as="geometry">
            <mxPoint x="50" y="779.5" as="sourcePoint" />
            <mxPoint x="190" y="779.5" as="targetPoint" />
          </mxGeometry>
        </mxCell>
        <mxCell id="BpLa_ssaulW1l6H_9I5X-36" value="" style="endArrow=none;html=1;rounded=0;entryX=0;entryY=0.5;entryDx=0;entryDy=0;" parent="1" source="BpLa_ssaulW1l6H_9I5X-34" target="BpLa_ssaulW1l6H_9I5X-32" edge="1">
          <mxGeometry relative="1" as="geometry">
            <mxPoint x="300" y="779.5" as="sourcePoint" />
            <mxPoint x="430" y="779.5" as="targetPoint" />
          </mxGeometry>
        </mxCell>
        <mxCell id="BpLa_ssaulW1l6H_9I5X-37" value="1:M" style="text;html=1;align=center;verticalAlign=middle;resizable=0;points=[];autosize=1;strokeColor=none;fillColor=none;" parent="1" vertex="1">
          <mxGeometry x="230" y="720" width="40" height="30" as="geometry" />
        </mxCell>
        <mxCell id="BpLa_ssaulW1l6H_9I5X-38" value="1:M" style="text;html=1;align=center;verticalAlign=middle;resizable=0;points=[];autosize=1;strokeColor=none;fillColor=none;" parent="1" vertex="1">
          <mxGeometry x="560" y="555" width="40" height="30" as="geometry" />
        </mxCell>
        <mxCell id="BpLa_ssaulW1l6H_9I5X-39" value="Id_due" style="ellipse;whiteSpace=wrap;html=1;align=center;fontStyle=4;" parent="1" vertex="1">
          <mxGeometry x="-130" y="680" width="110" height="60" as="geometry" />
        </mxCell>
        <mxCell id="BpLa_ssaulW1l6H_9I5X-41" value="modificar_producto" style="ellipse;whiteSpace=wrap;html=1;align=center;" parent="1" vertex="1">
          <mxGeometry x="20" y="680" width="110" height="60" as="geometry" />
        </mxCell>
        <mxCell id="BpLa_ssaulW1l6H_9I5X-42" value="Ingresar_producto" style="ellipse;whiteSpace=wrap;html=1;align=center;" parent="1" vertex="1">
          <mxGeometry x="20" y="820" width="110" height="60" as="geometry" />
        </mxCell>
        <mxCell id="BpLa_ssaulW1l6H_9I5X-43" value="Ingresar_precio" style="ellipse;whiteSpace=wrap;html=1;align=center;" parent="1" vertex="1">
          <mxGeometry x="-130" y="820" width="110" height="60" as="geometry" />
        </mxCell>
        <mxCell id="BpLa_ssaulW1l6H_9I5X-44" value="modificar_precio" style="ellipse;whiteSpace=wrap;html=1;align=center;" parent="1" vertex="1">
          <mxGeometry x="-250" y="750" width="110" height="60" as="geometry" />
        </mxCell>
        <mxCell id="BpLa_ssaulW1l6H_9I5X-46" value="Empleado" style="ellipse;whiteSpace=wrap;html=1;align=center;fontStyle=4" parent="1" vertex="1">
          <mxGeometry x="510" y="430" width="100" height="40" as="geometry" />
        </mxCell>
        <mxCell id="BpLa_ssaulW1l6H_9I5X-47" value="Dueño" style="ellipse;whiteSpace=wrap;html=1;align=center;fontStyle=4" parent="1" vertex="1">
          <mxGeometry x="330" y="260" width="100" height="40" as="geometry" />
        </mxCell>
        <mxCell id="BpLa_ssaulW1l6H_9I5X-49" value="" style="endArrow=none;html=1;rounded=0;exitX=0.5;exitY=1;exitDx=0;exitDy=0;entryX=0.25;entryY=0;entryDx=0;entryDy=0;" parent="1" source="BpLa_ssaulW1l6H_9I5X-47" target="BpLa_ssaulW1l6H_9I5X-16" edge="1">
          <mxGeometry relative="1" as="geometry">
            <mxPoint x="450" y="290" as="sourcePoint" />
            <mxPoint x="355" y="340" as="targetPoint" />
          </mxGeometry>
        </mxCell>
        <mxCell id="BpLa_ssaulW1l6H_9I5X-50" value="" style="endArrow=none;html=1;rounded=0;exitX=0.75;exitY=1;exitDx=0;exitDy=0;entryX=0.5;entryY=0;entryDx=0;entryDy=0;" parent="1" source="BpLa_ssaulW1l6H_9I5X-16" target="BpLa_ssaulW1l6H_9I5X-46" edge="1">
          <mxGeometry relative="1" as="geometry">
            <mxPoint x="630" y="300" as="sourcePoint" />
            <mxPoint x="535" y="350" as="targetPoint" />
          </mxGeometry>
        </mxCell>
        <mxCell id="BpLa_ssaulW1l6H_9I5X-52" value="" style="endArrow=none;html=1;rounded=0;entryX=0.5;entryY=0;entryDx=0;entryDy=0;" parent="1" edge="1">
          <mxGeometry relative="1" as="geometry">
            <mxPoint x="585" y="459.5" as="sourcePoint" />
            <mxPoint x="535" y="459.5" as="targetPoint" />
          </mxGeometry>
        </mxCell>
        <mxCell id="BpLa_ssaulW1l6H_9I5X-53" value="" style="endArrow=none;html=1;rounded=0;entryX=0.5;entryY=0;entryDx=0;entryDy=0;" parent="1" edge="1">
          <mxGeometry relative="1" as="geometry">
            <mxPoint x="395" y="290" as="sourcePoint" />
            <mxPoint x="365" y="290" as="targetPoint" />
          </mxGeometry>
        </mxCell>
        <mxCell id="BpLa_ssaulW1l6H_9I5X-54" value="" style="endArrow=none;html=1;rounded=0;exitX=1;exitY=0.5;exitDx=0;exitDy=0;entryX=0;entryY=0.5;entryDx=0;entryDy=0;" parent="1" source="BpLa_ssaulW1l6H_9I5X-44" target="BpLa_ssaulW1l6H_9I5X-33" edge="1">
          <mxGeometry relative="1" as="geometry">
            <mxPoint x="-130" y="760" as="sourcePoint" />
            <mxPoint x="-95" y="820" as="targetPoint" />
          </mxGeometry>
        </mxCell>
        <mxCell id="BpLa_ssaulW1l6H_9I5X-55" value="" style="endArrow=none;html=1;rounded=0;exitX=0.5;exitY=0;exitDx=0;exitDy=0;entryX=0.25;entryY=1;entryDx=0;entryDy=0;" parent="1" source="BpLa_ssaulW1l6H_9I5X-43" target="BpLa_ssaulW1l6H_9I5X-33" edge="1">
          <mxGeometry relative="1" as="geometry">
            <mxPoint x="-130" y="790" as="sourcePoint" />
            <mxPoint x="-40" y="790" as="targetPoint" />
          </mxGeometry>
        </mxCell>
        <mxCell id="BpLa_ssaulW1l6H_9I5X-56" value="" style="endArrow=none;html=1;rounded=0;exitX=0.5;exitY=0;exitDx=0;exitDy=0;entryX=0.75;entryY=1;entryDx=0;entryDy=0;" parent="1" source="BpLa_ssaulW1l6H_9I5X-42" target="BpLa_ssaulW1l6H_9I5X-33" edge="1">
          <mxGeometry relative="1" as="geometry">
            <mxPoint x="-65" y="830" as="sourcePoint" />
            <mxPoint x="-15" y="820" as="targetPoint" />
          </mxGeometry>
        </mxCell>
        <mxCell id="BpLa_ssaulW1l6H_9I5X-57" value="" style="endArrow=none;html=1;rounded=0;exitX=0.75;exitY=0;exitDx=0;exitDy=0;entryX=0.5;entryY=1;entryDx=0;entryDy=0;" parent="1" source="BpLa_ssaulW1l6H_9I5X-33" target="BpLa_ssaulW1l6H_9I5X-41" edge="1">
          <mxGeometry relative="1" as="geometry">
            <mxPoint x="30" y="740" as="sourcePoint" />
            <mxPoint x="-20" y="720" as="targetPoint" />
          </mxGeometry>
        </mxCell>
        <mxCell id="BpLa_ssaulW1l6H_9I5X-58" value="" style="endArrow=none;html=1;rounded=0;exitX=0.25;exitY=0;exitDx=0;exitDy=0;entryX=0.5;entryY=1;entryDx=0;entryDy=0;" parent="1" source="BpLa_ssaulW1l6H_9I5X-33" target="BpLa_ssaulW1l6H_9I5X-39" edge="1">
          <mxGeometry relative="1" as="geometry">
            <mxPoint x="35" y="770" as="sourcePoint" />
            <mxPoint x="85" y="750" as="targetPoint" />
          </mxGeometry>
        </mxCell>
        <mxCell id="BpLa_ssaulW1l6H_9I5X-59" value="Generar" style="shape=rhombus;perimeter=rhombusPerimeter;whiteSpace=wrap;html=1;align=center;" parent="1" vertex="1">
          <mxGeometry x="707" y="750" width="120" height="60" as="geometry" />
        </mxCell>
        <mxCell id="BpLa_ssaulW1l6H_9I5X-61" value="" style="endArrow=none;html=1;rounded=0;entryX=0;entryY=0.5;entryDx=0;entryDy=0;exitX=1;exitY=0.5;exitDx=0;exitDy=0;" parent="1" source="BpLa_ssaulW1l6H_9I5X-32" target="BpLa_ssaulW1l6H_9I5X-59" edge="1">
          <mxGeometry relative="1" as="geometry">
            <mxPoint x="560" y="790" as="sourcePoint" />
            <mxPoint x="700" y="790" as="targetPoint" />
          </mxGeometry>
        </mxCell>
        <mxCell id="BpLa_ssaulW1l6H_9I5X-62" value="" style="endArrow=none;html=1;rounded=0;entryX=0;entryY=0.5;entryDx=0;entryDy=0;exitX=1;exitY=0.5;exitDx=0;exitDy=0;" parent="1" source="BpLa_ssaulW1l6H_9I5X-59" target="BpLa_ssaulW1l6H_9I5X-63" edge="1">
          <mxGeometry relative="1" as="geometry">
            <mxPoint x="850" y="790" as="sourcePoint" />
            <mxPoint x="1007" y="790" as="targetPoint" />
          </mxGeometry>
        </mxCell>
        <mxCell id="BpLa_ssaulW1l6H_9I5X-63" value="Pedido" style="whiteSpace=wrap;html=1;align=center;" parent="1" vertex="1">
          <mxGeometry x="980" y="760" width="100" height="40" as="geometry" />
        </mxCell>
        <mxCell id="BpLa_ssaulW1l6H_9I5X-64" value="1:M" style="text;html=1;align=center;verticalAlign=middle;resizable=0;points=[];autosize=1;strokeColor=none;fillColor=none;" parent="1" vertex="1">
          <mxGeometry x="747" y="720" width="40" height="30" as="geometry" />
        </mxCell>
        <mxCell id="BpLa_ssaulW1l6H_9I5X-65" value="Id_emp" style="ellipse;whiteSpace=wrap;html=1;align=center;fontStyle=4;" parent="1" vertex="1">
          <mxGeometry x="350" y="670" width="100" height="40" as="geometry" />
        </mxCell>
        <mxCell id="BpLa_ssaulW1l6H_9I5X-66" value="nombre" style="ellipse;whiteSpace=wrap;html=1;align=center;" parent="1" vertex="1">
          <mxGeometry x="560" y="850" width="100" height="40" as="geometry" />
        </mxCell>
        <mxCell id="BpLa_ssaulW1l6H_9I5X-67" value="Informe_falta_ventas" style="ellipse;whiteSpace=wrap;html=1;align=center;" parent="1" vertex="1">
          <mxGeometry x="540" y="670" width="120" height="40" as="geometry" />
        </mxCell>
        <mxCell id="BpLa_ssaulW1l6H_9I5X-68" value="Ingreso_caja" style="ellipse;whiteSpace=wrap;html=1;align=center;" parent="1" vertex="1">
          <mxGeometry x="340" y="850" width="100" height="40" as="geometry" />
        </mxCell>
        <mxCell id="BpLa_ssaulW1l6H_9I5X-69" value="apellido" style="ellipse;whiteSpace=wrap;html=1;align=center;" parent="1" vertex="1">
          <mxGeometry x="510" y="910" width="100" height="40" as="geometry" />
        </mxCell>
        <mxCell id="BpLa_ssaulW1l6H_9I5X-71" value="Egreso_caja" style="ellipse;whiteSpace=wrap;html=1;align=center;" parent="1" vertex="1">
          <mxGeometry x="390" y="910" width="100" height="40" as="geometry" />
        </mxCell>
        <mxCell id="BpLa_ssaulW1l6H_9I5X-72" value="" style="endArrow=none;html=1;rounded=0;entryX=0;entryY=1;entryDx=0;entryDy=0;exitX=0.5;exitY=0;exitDx=0;exitDy=0;" parent="1" source="BpLa_ssaulW1l6H_9I5X-68" target="BpLa_ssaulW1l6H_9I5X-32" edge="1">
          <mxGeometry relative="1" as="geometry">
            <mxPoint x="440" y="849" as="sourcePoint" />
            <mxPoint x="580" y="849" as="targetPoint" />
          </mxGeometry>
        </mxCell>
        <mxCell id="BpLa_ssaulW1l6H_9I5X-73" value="" style="endArrow=none;html=1;rounded=0;entryX=1;entryY=1;entryDx=0;entryDy=0;exitX=0.5;exitY=0;exitDx=0;exitDy=0;" parent="1" source="BpLa_ssaulW1l6H_9I5X-66" target="BpLa_ssaulW1l6H_9I5X-32" edge="1">
          <mxGeometry relative="1" as="geometry">
            <mxPoint x="480" y="870" as="sourcePoint" />
            <mxPoint x="540" y="820" as="targetPoint" />
          </mxGeometry>
        </mxCell>
        <mxCell id="BpLa_ssaulW1l6H_9I5X-74" value="" style="endArrow=none;html=1;rounded=0;entryX=0.75;entryY=1;entryDx=0;entryDy=0;exitX=0.5;exitY=0;exitDx=0;exitDy=0;" parent="1" source="BpLa_ssaulW1l6H_9I5X-69" target="BpLa_ssaulW1l6H_9I5X-32" edge="1">
          <mxGeometry relative="1" as="geometry">
            <mxPoint x="550" y="860" as="sourcePoint" />
            <mxPoint x="490" y="810" as="targetPoint" />
          </mxGeometry>
        </mxCell>
        <mxCell id="BpLa_ssaulW1l6H_9I5X-75" value="" style="endArrow=none;html=1;rounded=0;entryX=0.25;entryY=1;entryDx=0;entryDy=0;exitX=0.5;exitY=0;exitDx=0;exitDy=0;" parent="1" source="BpLa_ssaulW1l6H_9I5X-71" target="BpLa_ssaulW1l6H_9I5X-32" edge="1">
          <mxGeometry relative="1" as="geometry">
            <mxPoint x="505" y="930" as="sourcePoint" />
            <mxPoint x="470" y="820" as="targetPoint" />
          </mxGeometry>
        </mxCell>
        <mxCell id="BpLa_ssaulW1l6H_9I5X-76" value="N_pedido" style="ellipse;whiteSpace=wrap;html=1;align=center;" parent="1" vertex="1">
          <mxGeometry x="880" y="670" width="100" height="40" as="geometry" />
        </mxCell>
        <mxCell id="BpLa_ssaulW1l6H_9I5X-77" value="Producto" style="ellipse;whiteSpace=wrap;html=1;align=center;fontStyle=4" parent="1" vertex="1">
          <mxGeometry x="880" y="840" width="100" height="40" as="geometry" />
        </mxCell>
        <mxCell id="BpLa_ssaulW1l6H_9I5X-78" value="Cliente" style="ellipse;whiteSpace=wrap;html=1;align=center;fontStyle=4" parent="1" vertex="1">
          <mxGeometry x="1080" y="840" width="100" height="40" as="geometry" />
        </mxCell>
        <mxCell id="BpLa_ssaulW1l6H_9I5X-79" value="lista_producto" style="ellipse;whiteSpace=wrap;html=1;align=center;" parent="1" vertex="1">
          <mxGeometry x="1080" y="670" width="100" height="40" as="geometry" />
        </mxCell>
        <mxCell id="BpLa_ssaulW1l6H_9I5X-80" value="Id_pe" style="ellipse;whiteSpace=wrap;html=1;align=center;fontStyle=4;" parent="1" vertex="1">
          <mxGeometry x="980" y="910" width="100" height="40" as="geometry" />
        </mxCell>
        <mxCell id="BpLa_ssaulW1l6H_9I5X-81" value="" style="endArrow=none;html=1;rounded=0;entryX=0.25;entryY=0;entryDx=0;entryDy=0;exitX=0.5;exitY=1;exitDx=0;exitDy=0;" parent="1" source="BpLa_ssaulW1l6H_9I5X-65" target="BpLa_ssaulW1l6H_9I5X-32" edge="1">
          <mxGeometry relative="1" as="geometry">
            <mxPoint x="400" y="860" as="sourcePoint" />
            <mxPoint x="460" y="810" as="targetPoint" />
          </mxGeometry>
        </mxCell>
        <mxCell id="BpLa_ssaulW1l6H_9I5X-82" value="" style="endArrow=none;html=1;rounded=0;entryX=0.75;entryY=0;entryDx=0;entryDy=0;exitX=0.5;exitY=1;exitDx=0;exitDy=0;" parent="1" source="BpLa_ssaulW1l6H_9I5X-67" target="BpLa_ssaulW1l6H_9I5X-32" edge="1">
          <mxGeometry relative="1" as="geometry">
            <mxPoint x="535" y="690" as="sourcePoint" />
            <mxPoint x="610" y="740" as="targetPoint" />
          </mxGeometry>
        </mxCell>
        <mxCell id="BpLa_ssaulW1l6H_9I5X-84" value="" style="endArrow=none;html=1;rounded=0;entryX=0.5;entryY=0;entryDx=0;entryDy=0;exitX=0.25;exitY=1;exitDx=0;exitDy=0;" parent="1" source="BpLa_ssaulW1l6H_9I5X-63" target="BpLa_ssaulW1l6H_9I5X-77" edge="1">
          <mxGeometry relative="1" as="geometry">
            <mxPoint x="905" y="920" as="sourcePoint" />
            <mxPoint x="980" y="970" as="targetPoint" />
          </mxGeometry>
        </mxCell>
        <mxCell id="BpLa_ssaulW1l6H_9I5X-85" value="" style="endArrow=none;html=1;rounded=0;entryX=0.5;entryY=0;entryDx=0;entryDy=0;exitX=0.5;exitY=1;exitDx=0;exitDy=0;" parent="1" source="BpLa_ssaulW1l6H_9I5X-63" target="BpLa_ssaulW1l6H_9I5X-80" edge="1">
          <mxGeometry relative="1" as="geometry">
            <mxPoint x="1015" y="810" as="sourcePoint" />
            <mxPoint x="940" y="850" as="targetPoint" />
          </mxGeometry>
        </mxCell>
        <mxCell id="BpLa_ssaulW1l6H_9I5X-86" value="" style="endArrow=none;html=1;rounded=0;entryX=0.5;entryY=0;entryDx=0;entryDy=0;exitX=0.75;exitY=1;exitDx=0;exitDy=0;" parent="1" source="BpLa_ssaulW1l6H_9I5X-63" target="BpLa_ssaulW1l6H_9I5X-78" edge="1">
          <mxGeometry relative="1" as="geometry">
            <mxPoint x="1040" y="810" as="sourcePoint" />
            <mxPoint x="1040" y="920" as="targetPoint" />
          </mxGeometry>
        </mxCell>
        <mxCell id="BpLa_ssaulW1l6H_9I5X-87" value="" style="endArrow=none;html=1;rounded=0;entryX=0.75;entryY=0;entryDx=0;entryDy=0;exitX=0.5;exitY=1;exitDx=0;exitDy=0;" parent="1" source="BpLa_ssaulW1l6H_9I5X-79" target="BpLa_ssaulW1l6H_9I5X-63" edge="1">
          <mxGeometry relative="1" as="geometry">
            <mxPoint x="1130" y="760" as="sourcePoint" />
            <mxPoint x="1205" y="800" as="targetPoint" />
          </mxGeometry>
        </mxCell>
        <mxCell id="BpLa_ssaulW1l6H_9I5X-88" value="" style="endArrow=none;html=1;rounded=0;entryX=0.25;entryY=0;entryDx=0;entryDy=0;exitX=0.5;exitY=1;exitDx=0;exitDy=0;" parent="1" source="BpLa_ssaulW1l6H_9I5X-76" target="BpLa_ssaulW1l6H_9I5X-63" edge="1">
          <mxGeometry relative="1" as="geometry">
            <mxPoint x="1140" y="720" as="sourcePoint" />
            <mxPoint x="1065" y="770" as="targetPoint" />
          </mxGeometry>
        </mxCell>
        <mxCell id="BpLa_ssaulW1l6H_9I5X-89" value="Facturar&amp;nbsp;" style="shape=rhombus;perimeter=rhombusPerimeter;whiteSpace=wrap;html=1;align=center;" parent="1" vertex="1">
          <mxGeometry x="970" y="540" width="120" height="60" as="geometry" />
        </mxCell>
        <mxCell id="BpLa_ssaulW1l6H_9I5X-90" value="" style="endArrow=none;html=1;rounded=0;" parent="1" source="BpLa_ssaulW1l6H_9I5X-89" target="BpLa_ssaulW1l6H_9I5X-63" edge="1">
          <mxGeometry relative="1" as="geometry">
            <mxPoint x="1029.5" y="650" as="sourcePoint" />
            <mxPoint x="1029.5" y="760" as="targetPoint" />
          </mxGeometry>
        </mxCell>
        <mxCell id="BpLa_ssaulW1l6H_9I5X-92" value="" style="endArrow=none;html=1;rounded=0;entryX=0.75;entryY=0;entryDx=0;entryDy=0;" parent="1" edge="1">
          <mxGeometry relative="1" as="geometry">
            <mxPoint x="1150" y="870.5" as="sourcePoint" />
            <mxPoint x="1110" y="869.5" as="targetPoint" />
          </mxGeometry>
        </mxCell>
        <mxCell id="BpLa_ssaulW1l6H_9I5X-93" value="" style="endArrow=none;html=1;rounded=0;entryX=0.75;entryY=0;entryDx=0;entryDy=0;" parent="1" edge="1">
          <mxGeometry relative="1" as="geometry">
            <mxPoint x="955" y="869.5" as="sourcePoint" />
            <mxPoint x="905" y="869.5" as="targetPoint" />
          </mxGeometry>
        </mxCell>
        <mxCell id="BpLa_ssaulW1l6H_9I5X-94" value="" style="endArrow=none;html=1;rounded=0;" parent="1" source="BpLa_ssaulW1l6H_9I5X-95" target="BpLa_ssaulW1l6H_9I5X-89" edge="1">
          <mxGeometry relative="1" as="geometry">
            <mxPoint x="1029.5" y="480" as="sourcePoint" />
            <mxPoint x="1029.5" y="590" as="targetPoint" />
          </mxGeometry>
        </mxCell>
        <mxCell id="BpLa_ssaulW1l6H_9I5X-95" value="Tickect" style="whiteSpace=wrap;html=1;align=center;" parent="1" vertex="1">
          <mxGeometry x="980" y="340" width="100" height="40" as="geometry" />
        </mxCell>
        <mxCell id="BpLa_ssaulW1l6H_9I5X-96" value="1:1" style="text;html=1;align=center;verticalAlign=middle;resizable=0;points=[];autosize=1;strokeColor=none;fillColor=none;" parent="1" vertex="1">
          <mxGeometry x="1095" y="555" width="40" height="30" as="geometry" />
        </mxCell>
        <mxCell id="BpLa_ssaulW1l6H_9I5X-98" value="Cliente" style="ellipse;whiteSpace=wrap;html=1;align=center;fontStyle=4" parent="1" vertex="1">
          <mxGeometry x="880" y="400" width="100" height="40" as="geometry" />
        </mxCell>
        <mxCell id="BpLa_ssaulW1l6H_9I5X-100" value="Id_ti" style="ellipse;whiteSpace=wrap;html=1;align=center;fontStyle=4;" parent="1" vertex="1">
          <mxGeometry x="880" y="280" width="100" height="40" as="geometry" />
        </mxCell>
        <mxCell id="BpLa_ssaulW1l6H_9I5X-101" value="Pedido" style="ellipse;whiteSpace=wrap;html=1;align=center;fontStyle=4" parent="1" vertex="1">
          <mxGeometry x="1080" y="280" width="100" height="40" as="geometry" />
        </mxCell>
        <mxCell id="BpLa_ssaulW1l6H_9I5X-102" value="precio_f" style="ellipse;whiteSpace=wrap;html=1;align=center;fontStyle=0;" parent="1" vertex="1">
          <mxGeometry x="1080" y="400" width="100" height="40" as="geometry" />
        </mxCell>
        <mxCell id="BpLa_ssaulW1l6H_9I5X-103" value="" style="endArrow=none;html=1;rounded=0;" parent="1" edge="1">
          <mxGeometry relative="1" as="geometry">
            <mxPoint x="910" y="429" as="sourcePoint" />
            <mxPoint x="950" y="429" as="targetPoint" />
          </mxGeometry>
        </mxCell>
        <mxCell id="BpLa_ssaulW1l6H_9I5X-104" value="" style="endArrow=none;html=1;rounded=0;" parent="1" edge="1">
          <mxGeometry relative="1" as="geometry">
            <mxPoint x="1150" y="310" as="sourcePoint" />
            <mxPoint x="1110" y="310" as="targetPoint" />
          </mxGeometry>
        </mxCell>
        <mxCell id="BpLa_ssaulW1l6H_9I5X-105" value="" style="endArrow=none;html=1;rounded=0;exitX=0.75;exitY=1;exitDx=0;exitDy=0;entryX=0.5;entryY=0;entryDx=0;entryDy=0;" parent="1" source="BpLa_ssaulW1l6H_9I5X-95" target="BpLa_ssaulW1l6H_9I5X-102" edge="1">
          <mxGeometry relative="1" as="geometry">
            <mxPoint x="1040" y="390" as="sourcePoint" />
            <mxPoint x="1040" y="550" as="targetPoint" />
          </mxGeometry>
        </mxCell>
        <mxCell id="BpLa_ssaulW1l6H_9I5X-106" value="" style="endArrow=none;html=1;rounded=0;exitX=0.25;exitY=1;exitDx=0;exitDy=0;entryX=0.5;entryY=0;entryDx=0;entryDy=0;" parent="1" source="BpLa_ssaulW1l6H_9I5X-95" target="BpLa_ssaulW1l6H_9I5X-98" edge="1">
          <mxGeometry relative="1" as="geometry">
            <mxPoint x="930" y="380" as="sourcePoint" />
            <mxPoint x="1005" y="400" as="targetPoint" />
          </mxGeometry>
        </mxCell>
        <mxCell id="BpLa_ssaulW1l6H_9I5X-107" value="" style="endArrow=none;html=1;rounded=0;exitX=0.25;exitY=0;exitDx=0;exitDy=0;entryX=0.5;entryY=1;entryDx=0;entryDy=0;" parent="1" source="BpLa_ssaulW1l6H_9I5X-95" target="BpLa_ssaulW1l6H_9I5X-100" edge="1">
          <mxGeometry relative="1" as="geometry">
            <mxPoint x="1015" y="390" as="sourcePoint" />
            <mxPoint x="940" y="410" as="targetPoint" />
          </mxGeometry>
        </mxCell>
        <mxCell id="BpLa_ssaulW1l6H_9I5X-108" value="" style="endArrow=none;html=1;rounded=0;entryX=0.5;entryY=1;entryDx=0;entryDy=0;" parent="1" target="BpLa_ssaulW1l6H_9I5X-101" edge="1">
          <mxGeometry relative="1" as="geometry">
            <mxPoint x="1050" y="340" as="sourcePoint" />
            <mxPoint x="940" y="330" as="targetPoint" />
          </mxGeometry>
        </mxCell>
        <mxCell id="IPQNaH_uUHFEe18PuN09-1" value="" style="endArrow=none;html=1;rounded=0;entryX=0;entryY=0.5;entryDx=0;entryDy=0;exitX=1;exitY=0.5;exitDx=0;exitDy=0;" parent="1" source="IPQNaH_uUHFEe18PuN09-7" target="BpLa_ssaulW1l6H_9I5X-1" edge="1">
          <mxGeometry width="50" height="50" relative="1" as="geometry">
            <mxPoint x="-320" y="360" as="sourcePoint" />
            <mxPoint x="-180" y="320" as="targetPoint" />
          </mxGeometry>
        </mxCell>
        <mxCell id="IPQNaH_uUHFEe18PuN09-4" style="edgeStyle=orthogonalEdgeStyle;rounded=0;orthogonalLoop=1;jettySize=auto;html=1;endArrow=none;endFill=0;" parent="1" source="IPQNaH_uUHFEe18PuN09-2" target="IPQNaH_uUHFEe18PuN09-3" edge="1">
          <mxGeometry relative="1" as="geometry" />
        </mxCell>
        <mxCell id="IPQNaH_uUHFEe18PuN09-6" style="edgeStyle=orthogonalEdgeStyle;rounded=0;orthogonalLoop=1;jettySize=auto;html=1;entryX=0.5;entryY=1;entryDx=0;entryDy=0;endArrow=none;endFill=0;" parent="1" source="IPQNaH_uUHFEe18PuN09-2" target="IPQNaH_uUHFEe18PuN09-5" edge="1">
          <mxGeometry relative="1" as="geometry" />
        </mxCell>
        <mxCell id="IPQNaH_uUHFEe18PuN09-2" value="Usser" style="rounded=0;whiteSpace=wrap;html=1;" parent="1" vertex="1">
          <mxGeometry x="-430" y="335" width="110" height="50" as="geometry" />
        </mxCell>
        <mxCell id="IPQNaH_uUHFEe18PuN09-3" value="usuario" style="ellipse;whiteSpace=wrap;html=1;" parent="1" vertex="1">
          <mxGeometry x="-540" y="260" width="100" height="60" as="geometry" />
        </mxCell>
        <mxCell id="IPQNaH_uUHFEe18PuN09-5" value="clave" style="ellipse;whiteSpace=wrap;html=1;" parent="1" vertex="1">
          <mxGeometry x="-350" y="230" width="110" height="50" as="geometry" />
        </mxCell>
        <mxCell id="IPQNaH_uUHFEe18PuN09-8" style="edgeStyle=orthogonalEdgeStyle;rounded=0;orthogonalLoop=1;jettySize=auto;html=1;entryX=1;entryY=0.5;entryDx=0;entryDy=0;endArrow=none;endFill=0;" parent="1" source="IPQNaH_uUHFEe18PuN09-7" target="IPQNaH_uUHFEe18PuN09-2" edge="1">
          <mxGeometry relative="1" as="geometry" />
        </mxCell>
        <mxCell id="IPQNaH_uUHFEe18PuN09-7" value="login" style="rhombus;whiteSpace=wrap;html=1;" parent="1" vertex="1">
          <mxGeometry x="-230" y="320" width="80" height="80" as="geometry" />
        </mxCell>
        <mxCell id="KLT18s4SECWYf88OWxM2-1" value="U:1" style="text;html=1;strokeColor=none;fillColor=none;align=center;verticalAlign=middle;whiteSpace=wrap;rounded=0;" vertex="1" parent="1">
          <mxGeometry x="-220" y="285" width="60" height="30" as="geometry" />
        </mxCell>
      </root>
    </mxGraphModel>
  </diagram>
</mxfile>
